HIERARCHY
ROOT Hips
{
  OFFSET 0.382225 96.6805 0.598322
  CHANNELS 6 Xposition Yposition Zposition Zrotation Xrotation Yrotation
  JOINT Spine
  {
    OFFSET 10.8089 -0.851416 0
    CHANNELS 3 Zrotation Xrotation Yrotation
    JOINT Spine1
    {
      OFFSET 18.8753 3.80116 0
      CHANNELS 3 Zrotation Xrotation Yrotation
      JOINT Spine2
      {
        OFFSET 13.4073 0.420477 0
        CHANNELS 3 Zrotation Xrotation Yrotation
        JOINT LeftShoulder
        {
          OFFSET 11.8837 -2.73209 -3.78198
          CHANNELS 3 Zrotation Xrotation Yrotation
          JOINT LeftArm
          {
            OFFSET 15.7849 0 -2.35849e-005
            CHANNELS 3 Zrotation Xrotation Yrotation
            JOINT LeftForeArm
            {
              OFFSET 30.3399 0 0
              CHANNELS 3 Zrotation Xrotation Yrotation
              JOINT LeftHand
              {
                OFFSET 26.9751 0 2.45913e-005
                CHANNELS 3 Zrotation Xrotation Yrotation
                End Site
                {
                  OFFSET 8 0 0
                }
              }
            }
          }
        }
        JOINT RightShoulder
        {
          OFFSET 11.8838 -2.7321 3.782
          CHANNELS 3 Zrotation Xrotation Yrotation
          JOINT RightArm
          {
            OFFSET -15.7848 0 -1.07056e-005
            CHANNELS 3 Zrotation Xrotation Yrotation
            JOINT RightForeArm
            {
              OFFSET -30.34 1.02096e-005 -2.53607e-005
              CHANNELS 3 Zrotation Xrotation Yrotation
              JOINT RightHand
              {
                OFFSET -26.9752 2.07668e-005 0
                CHANNELS 3 Zrotation Xrotation Yrotation
                End Site
                {
                  OFFSET -8 0 0
                }
              }
            }
          }
        }
        JOINT Neck
        {
          OFFSET 16.5588 -0.355318 0
          CHANNELS 3 Zrotation Xrotation Yrotation
          JOINT Head
          {
            OFFSET 9.28361 0.364157 0
            CHANNELS 3 Zrotation Xrotation Yrotation
            End Site
            {
              OFFSET 0 0 0
            }
          }
        }
      }
    }
  }
  JOINT LeftUpLeg
  {
    OFFSET -1.44883 -0.531424 -9.00581
    CHANNELS 3 Zrotation Xrotation Yrotation
    JOINT LeftLeg
    {
      OFFSET -42.572 0.0788889 -0.011964
      CHANNELS 3 Zrotation Xrotation Yrotation
      JOINT LeftFoot
      {
        OFFSET -40.1967 0 0
        CHANNELS 3 Zrotation Xrotation Yrotation
				JOINT LeftToe
        {
          OFFSET -10.4538 -16.5779 0.0801563
          CHANNELS 3 Zrotation Xrotation Yrotation
          End Site
          {
            OFFSET -1.0 -1.0 0.0
          }
        }
      }
    }
  }
  JOINT RightUpLeg
  {
    OFFSET -1.44865 -0.531427 9.0058
    CHANNELS 3 Zrotation Xrotation Yrotation
    JOINT RightLeg
    {
      OFFSET 42.5723 -3.24776e-005 0
      CHANNELS 3 Zrotation Xrotation Yrotation
      JOINT RightFoot
      {
        OFFSET 40.1968 0 -1.14003e-005
        CHANNELS 3 Zrotation Xrotation Yrotation
				JOINT RightToe
        {
          OFFSET 10.4538 16.5778 -0.0801573
          CHANNELS 3 Zrotation Xrotation Yrotation
          End Site
          {
            OFFSET -1.0 -1.0 0.0
          }
        }
      }
    }
  }
}
MOTION
Frames:	20
Frame Time:	0.0333333
67.2943 95.625 3.57834 -101.696 -85.4765 170.966 -8.84065 -0.661881 0.0476737 19.5777 -0.294297 -0.517809 2.7794 1.93418e-006 1.65929e-005 -2.09448 13.7586 79.3276 -15.0665 20.0752 0.808981 -0.185148 2.365 10.7994 -166.464 -58.1462 -167.753 -176.894 9.75918 74.4583 -20.1253 -2.92142 8.33032 0.000646579 1.20393 0.206724 -104.767 -85.4342 -103.925 -23.508 4.63459e-006 -5.90926e-006 15.6284 -59.1724 20.1117 18.9287 43.7851 -28.8794 -13.7066 -5.86369 1.05886 6.62141 -29.1467 20.3712 -90 0 0 -168.631 31.095 -13.4421 -19.697 -5.36343 -0.0767944 16.0957 -30.2807 6.17195 -90 0 0
67.264 95.608 3.5281 -97.1155 -85.2307 175.501 -8.34085 -0.761315 -0.238933 19.5308 -0.291578 -0.51353 2.7794 1.93418e-006 1.65929e-005 -2.12201 13.8755 79.5668 -14.9782 20.0488 0.86888 -0.156309 2.21832 10.7814 -166.01 -58.7468 -167.232 -176.967 9.83652 74.727 -20.6257 -3.01087 8.00034 -0.000116202 1.40548 0.206849 -104.51 -85.0103 -103.391 -23.508 4.63459e-006 -5.90926e-006 14.7564 -59.271 19.1795 18.6224 44.0299 -28.5543 -12.8258 -5.87064 1.16843 6.55051 -28.8102 20.7942 -90 0 0 -168.352 30.8991 -13.3807 -19.5411 -5.36899 -0.0545602 16.1915 -30.3858 6.23707 -90 0 0
67.263 95.6023 3.40714 -92.2106 -85.0325 -179.685 -7.95088 -0.862867 -0.431943 19.5952 -0.292768 -0.518532 2.7794 1.93418e-006 1.65929e-005 -2.14046 13.9115 79.7001 -15.0102 19.9015 1.00705 -0.222586 2.5574 10.8231 -165.947 -58.7001 -167.108 -177.011 9.93426 74.889 -20.8943 -3.10648 7.80006 0.000298615 1.2821 0.207068 -103.481 -85.2188 -102.312 -23.508 4.63459e-006 -5.90926e-006 14.1761 -58.9149 18.1759 18.4107 44.2836 -28.1593 -11.9367 -5.87539 1.27909 6.42563 -28.5595 21.1741 -90 0 0 -167.814 30.7136 -13.4118 -19.5747 -5.36599 -0.0592083 16.3002 -30.4274 6.21832 -90 0 0
67.302 95.6112 3.23032 -88.6524 -85.0576 -176.168 -7.81771 -1.06564 -0.682041 19.6461 -0.295449 -0.524053 2.7794 1.93418e-006 1.65929e-005 -2.15904 13.9319 79.8384 -15.1193 19.7292 1.14388 -0.222446 2.55746 10.8231 -165.864 -58.5876 -167.089 -177.02 10.0675 74.9206 -21.0805 -3.09428 7.67501 7.77811e-005 1.33597 0.207383 -98.6285 -85.2126 -97.3023 -23.508 4.63459e-006 -5.90926e-006 14.5125 -58.7689 17.8468 18.5437 44.2561 -27.9442 -11.626 -5.87804 1.31713 6.35126 -28.5001 21.2763 -90 0 0 -167.369 30.6227 -13.4196 -19.6193 -5.36069 -0.0654179 16.1645 -30.3233 6.02318 -90 0 0
67.3492 95.6323 3.0273 -86.9988 -85.3006 -174.559 -7.96592 -1.34842 -0.866733 19.6218 -0.296845 -0.52185 2.7794 1.93418e-006 1.65929e-005 -2.16686 13.8539 79.8568 -15.2188 19.524 1.35224 -0.164574 2.26301 10.7868 -165.679 -58.8454 -166.9 -177.01 10.2566 74.8918 -21.058 -3.07374 7.62856 0.000703125 1.15781 0.207719 -91.0523 -85.0652 -89.6793 -23.508 4.63459e-006 -5.90926e-006 15.4326 -58.8876 17.8922 18.8352 43.9836 -27.8362 -11.8115 -5.88012 1.29299 6.19829 -28.5741 21.1563 -90 0 0 -167.097 30.5845 -13.4697 -19.6916 -5.35705 -0.0755462 15.9622 -30.0555 5.90121 -90 0 0
67.4149 95.653 2.82274 -87.4706 -85.4967 -175.14 -8.3711 -1.56539 -0.89359 19.5855 -0.294744 -0.518535 2.7794 1.93418e-006 1.65929e-005 -2.15469 13.7805 79.7487 -15.3368 19.658 1.5843 -0.154077 2.20993 10.7803 -165.527 -58.9528 -166.694 -177.015 10.3872 74.9166 -20.9446 -3.09854 7.55399 1.58306e-005 1.34324 0.208081 -91.4472 -84.9749 -90.011 -23.508 4.63459e-006 -5.90926e-006 16.3513 -58.9111 17.7912 18.994 43.9486 -27.7381 -11.9982 -5.8819 1.26926 6.05674 -28.8038 21.0548 -90 0 0 -166.93 30.3857 -13.5929 -19.8478 -5.34812 -0.097561 15.8666 -29.7787 5.64086 -90 0 0
67.4828 95.6637 2.6192 -87.7132 -85.5319 -175.413 -8.66569 -1.65638 -0.963178 19.4484 -0.286826 -0.506011 2.7794 1.93418e-006 1.65929e-005 -2.14845 13.7455 79.6913 -15.2746 19.7218 1.65555 -0.155568 2.21819 10.7814 -165.139 -58.8648 -166.417 -177.035 10.4601 74.9863 -20.8897 -2.9877 7.45477 -0.000122742 1.37903 0.208388 -93.4852 -84.7839 -92.0614 -23.508 4.63459e-006 -5.90926e-006 17.0442 -58.7123 17.5187 19.169 44.0394 -27.7429 -12.0595 -5.88348 1.26139 6.00289 -28.9764 21.0328 -90 0 0 -166.789 30.1799 -13.6117 -19.9054 -5.34516 -0.105536 15.6545 -29.5936 5.47335 -90 0 0
67.5631 95.664 2.41609 -86.8832 -85.4796 -174.578 -8.82139 -1.71674 -1.04416 19.3292 -0.279964 -0.495103 2.7794 1.93418e-006 1.65929e-005 -2.14528 13.8374 79.7081 -15.2358 19.7999 1.54474 -0.124421 2.05889 10.7618 -164.622 -58.8986 -165.909 -177.053 10.5331 75.0476 -20.9405 -2.99055 7.43607 0.000776595 1.13167 0.208588 -91.6771 -84.8968 -90.3515 -23.508 4.63459e-006 -5.90926e-006 17.4255 -58.4315 17.1609 19.28 43.9987 -27.6635 -12.0451 -5.88503 1.26265 5.97451 -28.8989 21.007 -90 0 0 -166.583 30.1976 -13.6359 -19.8364 -5.34809 -0.095859 15.4947 -29.6617 5.4164 -90 0 0
67.6566 95.6668 2.21346 -85.0781 -85.3073 -172.821 -8.81253 -1.64453 -1.01105 19.2896 -0.277686 -0.491479 2.7794 1.93418e-006 1.65929e-005 -2.15194 13.8166 79.739 -15.1939 19.9507 1.41079 -0.136179 2.11977 10.7693 -164.3 -58.9386 -165.446 -177.056 10.5061 75.0631 -20.9657 -2.9445 7.59633 1.21623e-005 1.34331 0.208697 -93.7802 -85.0714 -92.4005 -23.508 4.63459e-006 -5.90926e-006 17.4286 -58.1781 16.8892 19.2635 43.9994 -27.4353 -11.8528 -5.88647 1.28639 5.92997 -28.6868 21.102 -90 0 0 -166.218 30.2595 -13.7455 -19.7582 -5.35141 -0.084641 15.3794 -29.8829 5.42799 -90 0 0
67.7686 95.6887 2.00494 -83.4184 -85.0002 -171.202 -8.77538 -1.46426 -0.990405 19.3392 -0.280536 -0.496005 2.7794 1.93418e-006 1.65929e-005 -2.14632 13.7811 79.6905 -15.2185 20.0686 1.51722 -0.103559 1.95229 10.749 -164.091 -59.0409 -165.346 -177.057 10.3629 75.0567 -20.9177 -2.99813 7.80578 0.000868887 1.11202 0.208603 -88.2689 -85.1573 -86.9425 -23.508 4.63459e-006 -5.90926e-006 17.3238 -57.8812 16.8963 19.2356 44.1586 -27.2179 -11.5558 -5.88741 1.32308 5.83038 -28.4845 21.1345 -90 0 0 -165.795 30.148 -13.8238 -19.7345 -5.35397 -0.0811423 15.1458 -30.0787 5.38642 -90 0 0
67.8938 95.7166 1.77855 -82.87 -84.6674 -170.686 -8.9165 -1.22394 -0.937404 19.5253 -0.291261 -0.513043 2.7794 1.93418e-006 1.65929e-005 -2.13373 13.6316 79.5413 -15.2743 19.7966 1.7571 -0.205047 2.47256 10.8127 -164.476 -58.5502 -165.589 -177.061 10.1708 75.0759 -20.9042 -3.08715 7.9766 0.000581638 1.19704 0.208324 -88.5672 -85.2097 -87.2408 -23.508 4.63459e-006 -5.90926e-006 16.9468 -57.5421 16.7313 19.282 44.3655 -27.101 -11.4104 -5.8883 1.34088 5.73055 -28.35 21.0981 -90 0 0 -165.481 29.8426 -13.8482 -19.7064 -5.35632 -0.0772266 14.8184 -30.1083 5.40568 -90 0 0
68.0039 95.7509 1.54993 -82.3834 -84.4099 -170.257 -9.06387 -1.07093 -0.798225 19.7096 -0.301931 -0.529835 2.7794 1.93418e-006 1.65929e-005 -2.12411 13.5297 79.4267 -15.3043 19.8027 1.86632 -0.188679 2.38925 10.8023 -164.841 -58.4735 -165.893 -177.087 10.0124 75.1638 -20.9633 -3.12418 8.12125 -0.000116844 1.39813 0.207805 -91.8249 -85.2328 -90.4995 -23.508 4.63459e-006 -5.90926e-006 16.2489 -57.0752 16.1295 19.4683 44.5255 -27.0339 -11.4783 -5.88918 1.33159 5.60224 -28.3019 20.9026 -90 0 0 -165.168 29.5878 -13.9073 -19.692 -5.35779 -0.0739591 14.5525 -30.1336 5.40004 -90 0 0
68.1088 95.7816 1.33232 -81.9964 -84.2092 -169.926 -9.2166 -0.983469 -0.676669 19.882 -0.311969 -0.545548 2.7794 1.93418e-006 1.65929e-005 -2.12543 13.4147 79.3901 -15.1771 19.7796 1.85645 -0.0601164 1.72817 10.7217 -164.1 -59.25 -165.079 -177.088 9.83075 75.1667 -20.9096 -3.17438 8.33401 0.000827887 1.14856 0.206957 -88.6866 -85.2395 -87.2936 -23.508 4.63459e-006 -5.90926e-006 15.6836 -56.4639 15.6184 19.6374 44.6848 -26.9769 -11.5087 -5.88998 1.3273 5.48724 -28.3212 20.8129 -90 0 0 -164.864 29.4593 -13.9872 -19.6784 -5.35773 -0.0730345 14.277 -30.2185 5.32309 -90 0 0
68.2118 95.8 1.13463 -81.6998 -84.0057 -169.693 -9.3151 -0.874598 -0.551809 20.0125 -0.319606 -0.557413 2.7794 1.93418e-006 1.65929e-005 -2.13817 13.2842 79.4128 -15.0997 19.8038 1.7891 0.0118992 1.35334 10.6765 -163.345 -59.5269 -164.302 -177.084 9.60222 75.1436 -20.8541 -3.16633 8.49125 0.000639576 1.2145 0.2058 -88.5721 -85.2881 -87.1366 -23.508 4.63459e-006 -5.90926e-006 15.1132 -55.4613 15.0858 19.7201 44.8407 -26.8663 -11.4954 -5.89069 1.32927 5.41341 -28.2856 20.6896 -90 0 0 -164.559 29.342 -14.0781 -19.7175 -5.35406 -0.0784902 14.2074 -30.363 5.14049 -90 0 0
68.3182 95.8124 0.942503 -82.143 -83.8652 -170.214 -9.54891 -0.72194 -0.420792 20.1935 -0.330228 -0.573836 2.7794 1.93418e-006 1.65929e-005 -2.1542 13.0237 79.401 -15.0105 19.6751 1.8376 0.0977671 0.902108 10.6224 -162.789 -59.899 -163.698 -177.07 9.43207 75.0956 -20.8145 -3.06326 8.52425 0.00023619 1.34444 0.204273 -90.6477 -85.2131 -89.1511 -23.508 4.63459e-006 -5.90926e-006 14.6618 -54.1392 14.6289 19.6523 44.9333 -26.6891 -11.4671 -5.89134 1.33168 5.3666 -28.2132 20.6432 -90 0 0 -164.304 29.183 -14.2085 -19.8358 -5.34864 -0.095064 14.0752 -30.4189 5.07307 -90 0 0
68.4221 95.8239 0.759105 -82.8491 -83.7987 -171.024 -9.80483 -0.592229 -0.269092 20.3072 -0.336932 -0.584149 2.7794 1.93418e-006 1.65929e-005 -2.16036 12.8358 79.3492 -15.1083 19.6122 1.95751 0.175168 0.49115 10.5736 -162.739 -60.2234 -163.637 -177.049 9.2593 75.0037 -20.6705 -2.92063 8.55496 0.000778458 1.22016 0.200979 -89.6405 -85.1515 -88.1898 -23.508 4.63459e-006 -5.90926e-006 14.3686 -52.8485 14.2601 19.5035 44.9269 -26.4347 -11.4854 -5.89195 1.32911 5.30717 -28.122 20.529 -90 0 0 -164.038 28.987 -14.3914 -20.0527 -5.34044 -0.125405 13.9046 -30.3149 5.14298 -90 0 0
68.5138 95.8461 0.584705 -83.3851 -83.7921 -171.64 -10.0642 -0.50025 -0.148299 20.4423 -0.344903 -0.596362 2.7794 1.93418e-006 1.65929e-005 -2.16147 12.6173 79.2444 -15.2288 19.6483 2.1531 0.202956 0.342131 10.5561 -162.528 -60.4217 -163.433 -177.02 9.09671 74.8935 -20.4797 -2.82349 8.61434 0.00260366 0.752853 0.189119 -85.9517 -85.0034 -84.4408 -23.508 4.63459e-006 -5.90926e-006 14.0487 -51.3868 13.8772 19.4692 44.8951 -26.2566 -11.5893 -5.89255 1.31554 5.22044 -28.0944 20.3245 -90 0 0 -163.797 28.7681 -14.5173 -20.3093 -5.32636 -0.161092 13.8449 -30.2473 4.8619 -90 0 0
68.5935 95.8745 0.424884 -84.078 -83.8373 -172.402 -10.3592 -0.475331 -0.0306481 20.6171 -0.35529 -0.61215 2.7794 1.93418e-006 1.65929e-005 -2.16875 12.3546 79.1445 -15.236 19.8756 2.29407 0.247516 0.102355 10.5279 -162.391 -60.5985 -163.225 -176.994 8.92691 74.785 -20.3114 -2.82523 8.71172 0.00392778 0.380435 0.179535 -80.3523 -84.9848 -78.8264 -23.508 4.63459e-006 -5.90926e-006 13.6453 -49.9737 13.533 19.4562 44.883 -26.1286 -11.689 -5.8931 1.30269 5.12919 -28.15 20.1763 -90 0 0 -163.602 28.5574 -14.6319 -20.5451 -5.31739 -0.193511 13.5348 -30.019 4.85232 -90 0 0
68.6499 95.9053 0.291775 -84.1944 -83.9131 -172.542 -10.4935 -0.46617 0.0406202 20.6849 -0.359333 -0.61827 2.7794 1.93418e-006 1.65929e-005 -2.17303 12.1368 79.0417 -15.2803 19.8297 2.39615 0.262195 0.0222222 10.5184 -162.235 -60.6423 -162.992 -176.968 8.81363 74.6783 -20.1839 -2.67086 8.85955 0.00548566 -0.114678 0.166904 -75.6 -84.8994 -74.1135 -23.508 4.63459e-006 -5.90926e-006 13.3182 -48.8806 13.2936 19.5107 44.8262 -26.0498 -11.7432 -5.89362 1.29563 5.01268 -28.2077 20.0682 -90 0 0 -163.471 28.4917 -14.6672 -20.6421 -5.31027 -0.206858 13.3878 -29.9837 4.49058 -90 0 0
68.695 95.9333 0.175169 -83.4056 -83.9506 -171.764 -10.4822 -0.452972 0.0982918 20.7168 -0.362645 -0.621153 2.7794 1.93418e-006 1.65929e-005 -2.17334 11.9808 78.9524 -15.2768 19.704 2.41965 0.342556 -0.414047 10.4675 -161.97 -61.2549 -162.691 -176.953 8.69248 74.6184 -20.1219 -2.56857 8.95483 0.00572369 -0.187498 0.165109 -73.1389 -84.8422 -71.6278 -23.508 4.63459e-006 -5.90926e-006 13.0891 -48.0595 13.1799 19.5695 44.8183 -25.9503 -11.6312 -5.89406 1.30902 4.87125 -28.2334 19.9576 -90 0 0 -163.327 28.5535 -14.6869 -20.5648 -5.31351 -0.196163 13.1723 -29.9922 4.35261 -90 0 0
